<?xml version="1.0" encoding="utf-8"?>
<!-- Generator: Adobe Illustrator 16.2.0, SVG Export Plug-In . SVG Version: 6.00 Build 0)  -->
<!DOCTYPE svg PUBLIC "-//W3C//DTD SVG 1.1//EN" "http://www.w3.org/Graphics/SVG/1.1/DTD/svg11.dtd">
<svg version="1.1" id="Layer_1" xmlns="http://www.w3.org/2000/svg" xmlns:xlink="http://www.w3.org/1999/xlink" x="0px" y="0px"
	 width="72px" height="52px" viewBox="0 0 72 52" enable-background="new 0 0 72 52" xml:space="preserve">
<g>
	<path fill-rule="evenodd" clip-rule="evenodd" fill="#E1343B" d="M71.924,16.763c-0.226-0.911-0.921-1.625-1.822-1.869
		L15.303,0.088c-0.653-0.177-1.348-0.085-1.934,0.253c-0.586,0.343-1.014,0.901-1.188,1.556L9.025,13.739
		c-0.179,0.685,0.225,1.389,0.901,1.572l3.141,0.845l-0.508,1.716c-1.323-0.425-4.223-1.059-6.574,0.518
		c-1.819,1.225-3.457,3.833-3.463,9.25H1.278C0.575,27.639,0,28.214,0,28.921v21.797C0,51.427,0.575,52,1.278,52h2.55
		c1.013,0,1.984-0.403,2.702-1.128c0.719-0.719,1.121-1.697,1.121-2.72v-4.486h5.734c1.203,0,2.279-0.559,2.979-1.435
		c0.067-0.047,0.127-0.1,0.188-0.157l14.088-14.173l22.644,6.105c0.678,0.183,1.377-0.225,1.56-0.905l0.542-2.032l4.432,1.194
		c2.039,0.55,4.138-0.669,4.683-2.722l1.424-5.342l5.261-4.93C71.864,18.631,72.148,17.67,71.924,16.763 M5.103,48.152
		c0,0.342-0.137,0.668-0.374,0.907c-0.238,0.242-0.565,0.378-0.9,0.378H2.552V30.201h1.266H3.83c0.337,0,0.661,0.138,0.898,0.377
		c0.237,0.241,0.374,0.568,0.374,0.909V48.152z M9.78,41.102H7.651v-2.564H9.78c-0.142,0.402-0.218,0.834-0.218,1.284
		C9.563,40.271,9.639,40.702,9.78,41.102z M7.651,35.973v-4.485c0-1.022-0.402-2.002-1.121-2.722
		c-0.415-0.418-0.915-0.73-1.457-0.916c-0.049-4.244,0.913-6.374,2.326-7.323c1.616-1.088,3.626-0.52,4.443-0.213l-0.315,1.074
		c-0.098,0.333-0.059,0.689,0.11,0.992c0.166,0.303,0.451,0.523,0.78,0.609l9.694,2.612L11.802,35.973H7.651z M13.385,41.102
		c-0.703,0-1.274-0.575-1.274-1.28c0-0.71,0.571-1.284,1.274-1.284c0.702,0,1.274,0.574,1.274,1.284
		C14.66,40.526,14.087,41.102,13.385,41.102z M16.834,38.159c-0.373-0.791-1.013-1.431-1.802-1.813l9.918-9.979l2.843,0.767
		L16.834,38.159z M52.711,31.198L14.342,20.855l1.187-4.033l31.37,8.454c0.467,0.126,0.965-0.026,1.282-0.39l3.223-3.653
		l3.696,0.998L52.711,31.198z M62.038,28.879c-0.183,0.684-0.884,1.09-1.563,0.906l-4.431-1.195l1.516-5.696l5.664,1.526
		L62.038,28.879z M69.447,17.394l-5.015,4.698l-13.13-3.54c-0.466-0.126-0.965,0.025-1.282,0.386l-3.223,3.656L13.35,13.577
		c-0.011-0.005-0.026-0.008-0.041-0.01l-1.488-0.401l2.822-10.601L69.44,17.371c0.005,0.002,0.01,0.007,0.01,0.01
		C69.45,17.385,69.45,17.39,69.447,17.394z"/>
	<path fill-rule="evenodd" clip-rule="evenodd" fill="#E1343B" d="M31.937,11.155c-0.897-0.246-1.819,0.292-2.061,1.196
		c-0.241,0.902,0.292,1.832,1.19,2.073s1.819-0.293,2.063-1.195C33.368,12.326,32.835,11.396,31.937,11.155"/>
	<path fill-rule="evenodd" clip-rule="evenodd" fill="#E1343B" d="M25.438,9.401c-0.898-0.242-1.821,0.294-2.063,1.196
		c-0.239,0.902,0.294,1.833,1.193,2.074c0.897,0.241,1.818-0.295,2.059-1.195C26.865,10.572,26.334,9.644,25.438,9.401"/>
	<path fill-rule="evenodd" clip-rule="evenodd" fill="#E1343B" d="M18.937,7.649c-0.898-0.243-1.823,0.295-2.062,1.199
		c-0.241,0.9,0.293,1.829,1.191,2.07c0.897,0.242,1.818-0.293,2.061-1.195C20.365,8.819,19.834,7.89,18.937,7.649"/>
</g>
</svg>
