<?xml version="1.0" encoding="utf-8"?>
<!-- Generator: Adobe Illustrator 16.2.0, SVG Export Plug-In . SVG Version: 6.00 Build 0)  -->
<!DOCTYPE svg PUBLIC "-//W3C//DTD SVG 1.1//EN" "http://www.w3.org/Graphics/SVG/1.1/DTD/svg11.dtd">
<svg version="1.1" id="Layer_1" xmlns="http://www.w3.org/2000/svg" xmlns:xlink="http://www.w3.org/1999/xlink" x="0px" y="0px"
	 width="72px" height="72px" viewBox="0 0 72 72" enable-background="new 0 0 72 72" xml:space="preserve">
<g>
	<path fill="#E2333B" d="M60.045,0H11.958C5.364,0,0,5.147,0,11.473v49.062C0,66.856,5.364,72,11.958,72h48.087
		C66.639,72,72,66.856,72,60.534V11.473C72,5.147,66.639,0,60.045,0z M60.045,67.409H11.958c-3.952,0-7.166-3.083-7.166-6.875
		V11.473c0-3.792,3.214-6.876,7.166-6.876h48.087c3.953,0,7.169,3.084,7.169,6.876v49.062
		C67.214,64.326,63.998,67.409,60.045,67.409z"/>
	<path fill="#E2333B" d="M57.387,42.526c1.318,0,2.393-1.033,2.393-2.302V20.059c0-1.268-1.074-2.3-2.393-2.3
		c-1.319,0-2.394,1.032-2.394,2.3v20.166C54.993,41.493,56.067,42.526,57.387,42.526z"/>
	<path fill="#E2333B" d="M46.693,48.124c1.322,0,2.393-1.03,2.393-2.295V14.452c0-1.265-1.07-2.294-2.393-2.294
		c-1.318,0-2.39,1.029-2.39,2.294v31.377C44.304,47.094,45.375,48.124,46.693,48.124z"/>
	<path fill="#E2333B" d="M36.001,51.484c1.318,0,2.393-1.027,2.393-2.293v-38.1c0-1.268-1.074-2.3-2.393-2.3
		c-1.319,0-2.394,1.032-2.394,2.3v38.1C33.607,50.457,34.682,51.484,36.001,51.484z"/>
	<path fill="#E2333B" d="M25.311,48.124c1.322,0,2.396-1.03,2.396-2.295V14.452c0-1.265-1.074-2.294-2.396-2.294
		s-2.395,1.029-2.395,2.294v31.377C22.916,47.094,23.989,48.124,25.311,48.124z"/>
	<path fill="#E2333B" d="M14.616,42.526c1.32,0,2.394-1.033,2.394-2.302V20.059c0-1.268-1.074-2.3-2.394-2.3
		c-1.319,0-2.392,1.032-2.392,2.3v20.166C12.225,41.493,13.297,42.526,14.616,42.526z"/>
	<path fill="#E2333B" d="M57.766,53.305c-9.387,4.923-19.611,6.445-30.19,4.499c-7.568-1.388-12.697-4.145-13.254-4.453
		c-1.083-0.63-2.628-0.255-3.282,0.784c-0.331,0.523-0.428,1.139-0.273,1.737c0.154,0.598,0.542,1.099,1.083,1.408
		c0.057,0.034,5.745,3.352,14.7,5.014c3.27,0.607,6.575,0.913,9.821,0.913c1.851,0,3.712-0.097,5.535-0.297
		c6.304-0.688,12.414-2.564,18.157-5.576c0.564-0.297,0.973-0.784,1.151-1.373c0.18-0.59,0.11-1.208-0.196-1.746
		C60.402,53.145,58.902,52.715,57.766,53.305z"/>
</g>
</svg>
