<?xml version="1.0" encoding="utf-8"?>
<!-- Generator: Adobe Illustrator 16.2.0, SVG Export Plug-In . SVG Version: 6.00 Build 0)  -->
<!DOCTYPE svg PUBLIC "-//W3C//DTD SVG 1.1//EN" "http://www.w3.org/Graphics/SVG/1.1/DTD/svg11.dtd">
<svg version="1.1" id="Layer_1" xmlns="http://www.w3.org/2000/svg" xmlns:xlink="http://www.w3.org/1999/xlink" x="0px" y="0px"
	 width="72px" height="72px" viewBox="0 0 72 72" enable-background="new 0 0 72 72" xml:space="preserve">
<g>
	<path fill="#E0343B" d="M36.001,0C16.149,0,0,16.149,0,36c0,19.852,16.149,36,36.001,36C55.85,72,72,55.852,72,36
		C72,16.149,55.85,0,36.001,0z M34.253,22.001v12.25H20.664c0.13-4.852,0.771-9.473,1.84-13.576
		C26.21,21.448,30.171,21.9,34.253,22.001z M34.253,37.748v12.25c-4.088,0.104-8.046,0.551-11.749,1.324
		c-1.068-4.104-1.71-8.723-1.84-13.574H34.253z M37.749,49.998v-12.25h13.583c-0.128,4.852-0.77,9.471-1.838,13.574
		C45.786,50.549,41.828,50.1,37.749,49.998z M37.749,34.251V22c4.082-0.102,8.043-0.552,11.748-1.323
		c1.065,4.103,1.707,8.723,1.835,13.574H37.749z M48.48,17.325c-3.38,0.682-6.992,1.083-10.731,1.18V3.733
		C42.116,4.837,45.989,9.997,48.48,17.325z M34.253,18.505c-3.736-0.097-7.352-0.5-10.732-1.183
		c2.492-7.327,6.36-12.487,10.732-13.589V18.505z M23.521,54.672c3.378-0.68,6.993-1.08,10.732-1.178v14.773
		C29.881,67.164,26.01,62.002,23.521,54.672z M37.749,53.494c3.734,0.098,7.346,0.498,10.729,1.182
		c-2.491,7.328-6.361,12.488-10.729,13.592V53.494z M54.828,34.251c-0.125-5.188-0.796-10.049-1.917-14.397
		c3.296-0.904,6.307-2.071,8.938-3.481c3.824,5.023,6.208,11.181,6.567,17.879H54.828z M51.936,16.508
		c-1.579-4.75-3.728-8.699-6.277-11.547c5.36,1.671,10.107,4.717,13.885,8.693C57.284,14.799,54.715,15.749,51.936,16.508z
		 M20.064,16.506c-2.781-0.761-5.342-1.716-7.602-2.86c3.775-3.974,8.521-7.015,13.881-8.686
		C23.792,7.809,21.643,11.756,20.064,16.506z M19.085,19.854c-1.119,4.347-1.79,9.209-1.915,14.397H3.584
		c0.358-6.698,2.742-12.854,6.568-17.879C12.78,17.781,15.791,18.95,19.085,19.854z M17.17,37.748
		c0.125,5.188,0.794,10.049,1.915,14.398c-3.294,0.9-6.305,2.07-8.933,3.479c-3.826-5.023-6.21-11.18-6.568-17.877H17.17z
		 M20.063,55.492c1.579,4.75,3.729,8.697,6.28,11.547c-5.362-1.67-10.11-4.719-13.886-8.691
		C14.715,57.201,17.283,56.252,20.063,55.492z M51.936,55.492c2.782,0.76,5.343,1.719,7.602,2.861
		c-3.774,3.973-8.524,7.016-13.879,8.686C48.208,64.189,50.356,60.242,51.936,55.492z M52.911,52.146
		c1.121-4.35,1.792-9.211,1.917-14.398h13.588c-0.359,6.697-2.743,12.854-6.567,17.877C59.218,54.219,56.21,53.049,52.911,52.146z"
		/>
</g>
</svg>
