<?xml version="1.0" encoding="utf-8"?>
<!-- Generator: Adobe Illustrator 16.2.0, SVG Export Plug-In . SVG Version: 6.00 Build 0)  -->
<!DOCTYPE svg PUBLIC "-//W3C//DTD SVG 1.1//EN" "http://www.w3.org/Graphics/SVG/1.1/DTD/svg11.dtd">
<svg version="1.1" id="Layer_1" xmlns="http://www.w3.org/2000/svg" xmlns:xlink="http://www.w3.org/1999/xlink" x="0px" y="0px"
	 width="388px" height="105px" viewBox="0 -4.5 388 105" enable-background="new 0 -4.5 388 105" xml:space="preserve">
<g>
	<path fill="#E1343B" d="M43.764,91.686C19.229,89.461,0,68.791,0,43.618C0,18.444,19.229-2.227,43.764-4.451V91.686L43.764,91.686z
		"/>
	<path fill="#E1343B" d="M86.084,43.628c0-19.38-14.703-35.312-33.535-37.206V-4.5c24.703,1.968,43.766,22.818,43.766,48.116
		c0,25.304-19.064,46.151-43.766,48.116V80.812c18.832-1.894,33.535-17.825,33.535-37.199V43.628z"/>
	<path fill="#E1343B" d="M66.76,43.628v-0.016C66.754,34.959,60.664,27.733,52.549,26V15.263
		c13.979,1.847,24.768,13.832,24.775,28.35v0.016C77.317,58.144,66.528,70.13,52.549,71.977V61.232
		C60.664,59.5,66.754,52.281,66.76,43.628"/>
	<g>
		<path fill="#333333" d="M336.469,35.461c-3.486-4.747-11.104-4.747-14.592,0c-3.547,4.829-3.514,12.13,0,16.966
			c3.482,4.794,11.109,4.792,14.592,0C339.981,47.589,340.016,40.29,336.469,35.461 M337.172,62.67
			c-4.84,2.088-11.121,2.109-15.957,0c-15.5-6.748-15.342-30.904,0.078-37.455c4.828-2.053,10.967-2.033,15.801,0
			C352.414,31.654,352.641,56.007,337.172,62.67z"/>
		<path fill="#333333" d="M224.211,23.683c0.291,0.002,12.551,0.009,12.834,0.017c2.574,0.086,4.777,0.467,6.611,1.139
			c2.102,0.771,3.783,1.85,5.039,3.236c1.256,1.389,2.154,3.072,2.689,5.052c0.539,1.978,0.809,2.935,0.809,5.296V62.25
			c-1.436,0.309-3.604,0.683-6.498,1.117c-2.896,0.437-6.166,0.654-9.807,0.654c-2.41,0-4.615-0.231-6.615-0.693
			s-3.705-1.208-5.113-2.234c-6.217-4.532-6.145-14.914,0.5-19.241c1.537-1.001,3.32-1.724,5.346-2.159
			c2.023-0.436,4.143-0.654,6.348-0.654c1.023,0,2.102,0.064,3.229,0.191c1.127,0.129,2.332,0.348,3.613,0.656
			c0-2.568,0.066-3.901-1.73-5.991c-3.398-3.956-12.66-1.955-17.254-2.308V23.683L224.211,23.683z M236.658,56.623
			c2.871,0,5.053-0.153,6.537-0.463v-9.721c-0.512-0.154-1.256-0.309-2.229-0.464c-0.975-0.153-2.053-0.231-3.23-0.231
			c-1.025,0-2.064,0.078-3.115,0.231C226.502,47.168,226.526,56.623,236.658,56.623z"/>
		<path fill="#333333" d="M162.037,23.683c0.293,0.002,12.555,0.009,12.838,0.017c2.572,0.086,4.777,0.467,6.611,1.139
			c2.102,0.771,3.781,1.85,5.037,3.236c1.256,1.389,2.154,3.072,2.691,5.052c0.537,1.978,0.809,2.935,0.809,5.296V62.25
			c-1.438,0.309-3.604,0.683-6.498,1.117c-2.896,0.437-6.168,0.654-9.809,0.654c-2.41,0-4.613-0.231-6.613-0.693
			s-3.707-1.208-5.115-2.234c-6.215-4.532-6.145-14.914,0.5-19.241c1.537-1.001,3.32-1.724,5.348-2.159
			c2.023-0.436,4.139-0.654,6.344-0.654c1.023,0,2.104,0.064,3.23,0.191c1.127,0.129,2.334,0.348,3.615,0.656
			c0-2.568,0.064-3.901-1.73-5.991c-3.4-3.956-12.66-1.955-17.258-2.308V23.683L162.037,23.683z M174.487,56.623
			c2.871,0,5.051-0.153,6.539-0.463v-9.721c-0.516-0.154-1.258-0.309-2.23-0.464c-0.975-0.153-2.053-0.231-3.229-0.231
			c-1.027,0-2.066,0.078-3.115,0.231C164.328,47.168,164.352,56.623,174.487,56.623z"/>
		<polygon fill="#333333" points="388,64.207 378.233,64.207 378.233,47.225 362.33,47.225 362.33,64.207 352.563,64.207 
			352.563,23.646 362.33,23.646 362.33,39.468 378.233,39.468 378.233,23.646 388,23.646 		"/>
		<polygon fill="#333333" points="219.901,31.516 210.323,31.516 210.323,64.244 200.961,64.244 200.961,31.516 191.457,31.516 
			191.457,23.683 219.901,23.683 		"/>
		<path fill="#333333" d="M141.192,56.941V31.058h-10.447c-0.1,2.016-0.223,4.068-0.369,6.157c-0.146,2.09-0.416,4.156-0.809,6.195
			c-0.395,2.043-0.92,6.023-1.582,7.965c-0.662,1.942-1.533,3.798-2.613,5.568L141.192,56.941L141.192,56.941z M111.686,56.941
			h4.414c1.521-2.016,2.711-4.264,3.568-6.746c0.859-2.482,1.484-7.08,1.877-9.809s0.639-5.518,0.736-8.369
			c0.096-2.852,0.172-5.631,0.221-8.335h27.592v33.261h5.887v11.206h-7.947v-3.903h-28.475v3.903h-7.873V56.941z"/>
		<path fill="#333333" d="M304.783,35.961c-1.129-2.334-2.648-4.314-4.561-5.938c-1.914-1.621-4.133-2.875-6.66-3.762
			c-2.525-0.884-5.186-1.4-7.982-1.549v-9.877h-8.607c0,1.656,0,8.222,0,9.879c-3.234,0.246-6.143,0.873-8.719,1.881
			c-2.574,1.008-4.76,2.349-6.549,4.02c-1.791,1.673-3.176,3.641-4.156,5.902c-0.98,2.261-1.473,4.77-1.473,7.521
			c0,2.803,0.504,5.359,1.508,7.669c1.008,2.311,2.418,4.315,4.232,6.011s4.008,3.035,6.584,4.02
			c2.576,0.982,5.434,1.549,8.572,1.695v9.625h8.607v-9.625c2.846-0.146,5.529-0.664,8.057-1.549
			c2.525-0.885,4.746-2.126,6.66-3.725c1.91-1.599,3.42-3.576,4.523-5.938c1.104-2.359,1.654-5.088,1.654-8.186
			C306.477,40.988,305.912,38.296,304.783,35.961z M276.971,32.164V55.91c-3.529-0.246-6.389-1.326-8.57-3.246
			c-2.182-1.916-3.273-4.769-3.273-8.553c0-3.786,1.105-6.674,3.313-8.666C270.647,33.455,273.49,32.361,276.971,32.164
			L276.971,32.164h0.002C276.973,32.164,276.973,32.164,276.971,32.164z M296.471,49.274c-0.639,1.475-1.496,2.704-2.574,3.687
			c-1.078,0.984-2.344,1.709-3.789,2.178c-1.447,0.466-2.955,0.725-4.525,0.773v-23.75c1.57,0.05,3.078,0.32,4.525,0.813
			c1.445,0.491,2.711,1.217,3.789,2.175c1.078,0.959,1.938,2.176,2.574,3.651c0.639,1.475,0.957,3.221,0.957,5.235
			C297.428,46.054,297.108,47.797,296.471,49.274z"/>
	</g>
	<g>
		<path fill="#333333" d="M118.159,82.156c0,1.092-0.035,2.162-0.105,3.213c-0.071,1.051-0.207,2.092-0.408,3.124
			c-0.202,1.032-0.484,2.046-0.847,3.048c-0.363,0.999-0.837,1.986-1.422,2.955h8.529v-12.34H118.159z M125.873,94.496h1.784v6.004
			h-1.906v-4.335h-12.159v4.335h-1.906v-6.004h1.604c0.666-1.051,1.195-2.063,1.588-3.032c0.394-0.97,0.695-1.96,0.907-2.971
			s0.354-2.077,0.425-3.198c0.07-1.123,0.105-2.352,0.105-3.686v-1.121h9.559V94.496z"/>
		<path fill="#333333" d="M135.543,82.156v0.637c0,0.605-0.01,1.269-0.029,1.986c-0.02,0.717-0.061,1.449-0.121,2.197
			s-0.156,1.492-0.288,2.229c-0.13,0.737-0.298,1.429-0.498,2.077c-0.222,0.667-0.5,1.299-0.832,1.894
			c-0.332,0.597-0.727,1.122-1.181,1.578c-0.452,0.455-0.977,0.827-1.571,1.121c-0.596,0.294-1.267,0.479-2.013,0.562l-0.271-1.637
			c1.008-0.223,1.819-0.637,2.435-1.244s1.125-1.466,1.528-2.577c0.402-1.112,0.659-2.39,0.771-3.836
			c0.11-1.444,0.166-3.028,0.166-4.745v-1.91h9.618v15.677h-1.965V82.156H135.543z"/>
		<path fill="#333333" d="M156.467,82.186c-0.242-0.06-0.635-0.125-1.18-0.197c-0.544-0.07-1.239-0.105-2.087-0.105
			c-0.564,0-1.113,0.056-1.648,0.168c-0.534,0.111-1.014,0.297-1.437,0.56c-0.424,0.263-0.762,0.603-1.013,1.016
			c-0.253,0.415-0.379,0.925-0.379,1.531c0,0.587,0.111,1.077,0.333,1.47c0.222,0.396,0.534,0.709,0.938,0.941
			c0.403,0.231,0.893,0.399,1.468,0.5c0.573,0.102,1.215,0.15,1.92,0.15h3.085V82.186z M151.597,89.767
			c-0.303,0.465-0.63,0.97-0.983,1.517c-0.352,0.545-0.695,1.102-1.027,1.666c-0.333,0.567-0.651,1.128-0.952,1.684
			c-0.303,0.557-0.556,1.066-0.758,1.532h-2.025c0.524-1.193,1.159-2.396,1.905-3.608s1.442-2.275,2.087-3.186
			c-0.403-0.121-0.791-0.292-1.165-0.516c-0.373-0.222-0.705-0.504-0.998-0.849c-0.292-0.343-0.528-0.753-0.71-1.226
			c-0.182-0.477-0.272-1.018-0.272-1.624c0-0.868,0.166-1.616,0.499-2.243s0.786-1.143,1.36-1.547
			c0.575-0.404,1.261-0.707,2.057-0.909c0.798-0.202,1.649-0.303,2.557-0.303c0.403,0,0.852,0.021,1.347,0.06
			c0.493,0.041,0.988,0.096,1.481,0.168c0.495,0.07,0.953,0.146,1.376,0.227c0.424,0.082,0.776,0.162,1.059,0.242v15.313h-1.966
			v-6.308h-2.813c-0.442,0-0.842-0.005-1.193-0.015C152.107,89.833,151.82,89.806,151.597,89.767z"/>
		<path fill="#333333" d="M171.009,85.067c-0.021,0.161-0.031,0.423-0.031,0.788c0,0.362,0,0.697,0,0.999
			c0,0.972,0.065,1.933,0.197,2.882c0.131,0.95,0.383,1.795,0.756,2.532s0.887,1.333,1.542,1.788
			c0.656,0.455,1.498,0.682,2.526,0.682c0.888,0,1.639-0.165,2.254-0.5c0.614-0.334,1.119-0.788,1.512-1.364
			c0.394-0.576,0.681-1.237,0.862-1.985c0.181-0.748,0.272-1.537,0.272-2.365c0-0.787-0.07-1.551-0.212-2.289
			s-0.399-1.386-0.771-1.941c-0.373-0.555-0.893-1.005-1.558-1.35c-0.665-0.343-1.522-0.516-2.57-0.516
			c-0.484,0-0.974,0.077-1.468,0.229c-0.494,0.152-0.952,0.354-1.376,0.605c-0.424,0.254-0.807,0.535-1.149,0.85
			C171.452,84.424,171.19,84.742,171.009,85.067 M171.129,82.853c0.323-0.362,0.695-0.687,1.119-0.97
			c0.423-0.283,0.868-0.516,1.332-0.697c0.462-0.182,0.922-0.318,1.376-0.41c0.452-0.09,0.871-0.137,1.255-0.137
			c1.169,0,2.183,0.188,3.04,0.563c0.856,0.373,1.562,0.908,2.117,1.607c0.555,0.697,0.962,1.531,1.225,2.5
			c0.262,0.972,0.394,2.053,0.394,3.245c0,0.89-0.11,1.809-0.332,2.759c-0.223,0.951-0.601,1.81-1.135,2.577
			c-0.534,0.769-1.251,1.399-2.147,1.896c-0.897,0.496-2.022,0.742-3.373,0.742c-1.452,0-2.643-0.287-3.568-0.863
			c-0.929-0.576-1.649-1.334-2.163-2.273c-0.515-0.941-0.867-2.002-1.06-3.186c-0.19-1.182-0.287-2.379-0.287-3.592
			c0-1.658,0.102-3.245,0.303-4.76c0.202-1.517,0.619-2.871,1.255-4.064c0.636-1.191,1.553-2.188,2.753-2.985
			c1.2-0.8,2.808-1.32,4.824-1.562c0.605-0.061,1.109-0.121,1.513-0.184c0.402-0.061,0.741-0.11,1.013-0.15
			c0.272-0.041,0.499-0.086,0.681-0.137s0.354-0.096,0.515-0.137l0.241,1.789c-0.201,0.081-0.544,0.162-1.027,0.242
			c-0.485,0.081-1.291,0.182-2.42,0.305c-1.21,0.141-2.259,0.388-3.146,0.742c-0.888,0.354-1.629,0.844-2.225,1.471
			c-0.594,0.627-1.058,1.405-1.391,2.336C171.477,80.448,171.25,81.56,171.129,82.853z"/>
		<path fill="#333333" d="M196.983,83.006c-0.609,0.728-1.316,1.642-2.117,2.748c-0.796,1.112-1.608,2.283-2.419,3.516
			c-0.813,1.24-1.589,2.464-2.33,3.68c-0.741,1.215-1.386,2.285-1.936,3.216h-1.846V80.488h1.937v12.553
			c0.484-0.869,1.084-1.875,1.801-3.017c0.715-1.144,1.477-2.295,2.283-3.457c0.806-1.163,1.618-2.278,2.434-3.351
			c0.816-1.07,1.578-1.98,2.285-2.729h1.844v15.677h-1.936V83.006z"/>
		<path fill="#333333" d="M206.834,94.738c1.414,0,2.521-0.236,3.328-0.717c0.807-0.475,1.211-1.193,1.211-2.148
			c0-0.691-0.152-1.238-0.455-1.648c-0.301-0.402-0.68-0.716-1.133-0.938c-0.455-0.228-0.938-0.373-1.453-0.445
			c-0.514-0.069-0.982-0.105-1.406-0.105h-2.178v-1.667h2.025c0.363,0,0.783-0.031,1.256-0.092c0.475-0.061,0.914-0.182,1.316-0.359
			c0.402-0.181,0.746-0.438,1.029-0.771c0.281-0.33,0.422-0.769,0.422-1.311c0-0.52-0.115-0.955-0.348-1.297
			c-0.23-0.339-0.539-0.613-0.922-0.815c-0.385-0.197-0.822-0.338-1.316-0.419c-0.494-0.08-0.992-0.121-1.498-0.121
			c-1.148,0-2.057,0.115-2.721,0.35c-0.666,0.232-1.119,0.409-1.361,0.529l-0.453-1.758c0.281-0.141,0.816-0.318,1.602-0.529
			c0.787-0.213,1.766-0.319,2.934-0.319c1.998,0,3.51,0.362,4.539,1.091c1.027,0.723,1.541,1.805,1.541,3.235
			c0,0.888-0.262,1.61-0.785,2.162c-0.525,0.556-1.141,0.944-1.846,1.167c0.988,0.283,1.775,0.758,2.359,1.43
			c0.584,0.667,0.877,1.548,0.877,2.639c0,1.562-0.555,2.725-1.664,3.496c-1.107,0.769-2.73,1.152-4.869,1.152
			c-1.432,0-2.58-0.121-3.449-0.362c-0.865-0.243-1.422-0.425-1.662-0.547l0.514-1.788c0.061,0.039,0.197,0.105,0.408,0.196
			c0.211,0.09,0.51,0.191,0.893,0.304c0.383,0.111,0.846,0.205,1.393,0.287C205.504,94.699,206.129,94.738,206.834,94.738"/>
		<polygon fill="#333333" points="229.151,96.165 227.184,96.165 227.184,88.855 218.684,88.855 218.684,96.165 216.717,96.165 
			216.717,80.488 218.684,80.488 218.684,87.189 227.184,87.189 227.184,80.488 229.151,80.488 		"/>
		<path fill="#333333" d="M243.6,87.068c-0.039-1.638-0.424-2.91-1.148-3.82c-0.727-0.91-1.754-1.365-3.086-1.365
			c-0.705,0-1.336,0.142-1.891,0.424c-0.555,0.284-1.037,0.663-1.451,1.139c-0.414,0.475-0.736,1.025-0.967,1.652
			c-0.232,0.626-0.369,1.283-0.41,1.971H243.6z M232.5,88.311c0-1.374,0.197-2.571,0.59-3.593s0.906-1.875,1.543-2.562
			c0.635-0.688,1.359-1.199,2.178-1.531c0.816-0.334,1.658-0.5,2.525-0.5c1.916,0,3.443,0.627,4.582,1.879
			c1.139,1.254,1.709,3.184,1.709,5.791c0,0.163-0.006,0.323-0.016,0.486c-0.01,0.161-0.025,0.313-0.045,0.454h-10.979
			c0.059,1.921,0.533,3.396,1.42,4.427c0.889,1.031,2.299,1.547,4.234,1.547c1.07,0,1.916-0.102,2.541-0.304
			s1.078-0.374,1.361-0.516l0.363,1.698c-0.283,0.162-0.813,0.354-1.588,0.577c-0.775,0.222-1.689,0.333-2.738,0.333
			c-1.371,0-2.539-0.203-3.508-0.607s-1.764-0.97-2.391-1.697c-0.625-0.729-1.078-1.592-1.359-2.592
			C232.641,90.601,232.5,89.504,232.5,88.311z"/>
		<path fill="#333333" d="M255.571,96.498c-1.209,0-2.277-0.193-3.207-0.576c-0.928-0.385-1.697-0.936-2.313-1.652
			c-0.615-0.718-1.084-1.576-1.408-2.578c-0.322-1-0.482-2.107-0.482-3.318c0-1.234,0.166-2.355,0.5-3.367
			c0.332-1.012,0.811-1.879,1.436-2.607c0.625-0.728,1.381-1.288,2.268-1.683c0.889-0.396,1.887-0.591,2.996-0.591
			c0.846,0,1.637,0.07,2.373,0.212s1.307,0.323,1.709,0.546l-0.514,1.698c-0.404-0.202-0.857-0.365-1.361-0.485
			c-0.504-0.121-1.18-0.182-2.025-0.182c-1.734,0-3.051,0.561-3.949,1.682c-0.896,1.122-1.344,2.714-1.344,4.777
			c0,0.929,0.1,1.783,0.301,2.561c0.201,0.778,0.531,1.445,0.982,2.002c0.455,0.555,1.039,0.99,1.756,1.303
			c0.715,0.314,1.588,0.471,2.615,0.471c0.848,0,1.559-0.096,2.133-0.289c0.574-0.192,0.994-0.357,1.256-0.5l0.424,1.698
			c-0.363,0.202-0.934,0.399-1.709,0.591C257.229,96.402,256.418,96.498,255.571,96.498"/>
		<path fill="#333333" d="M266.846,80.125c1.027,0,1.9,0.146,2.615,0.439c0.717,0.292,1.295,0.697,1.74,1.212
			c0.443,0.517,0.766,1.128,0.967,1.835c0.203,0.707,0.303,1.476,0.303,2.305V95.8c-0.201,0.062-0.494,0.126-0.877,0.197
			s-0.826,0.146-1.33,0.228c-0.506,0.08-1.064,0.147-1.68,0.197c-0.615,0.051-1.246,0.076-1.891,0.076
			c-0.826,0-1.588-0.092-2.283-0.273s-1.301-0.47-1.814-0.864c-0.516-0.394-0.918-0.898-1.211-1.515
			c-0.293-0.617-0.439-1.37-0.439-2.261c0-0.849,0.164-1.577,0.486-2.183s0.775-1.106,1.361-1.501
			c0.584-0.394,1.279-0.682,2.086-0.864s1.684-0.272,2.631-0.272c0.283,0,0.58,0.017,0.893,0.046s0.615,0.07,0.908,0.121
			c0.291,0.051,0.545,0.101,0.756,0.151s0.357,0.097,0.439,0.137v-0.971c0-0.546-0.041-1.077-0.123-1.591
			c-0.078-0.517-0.256-0.981-0.527-1.396c-0.273-0.414-0.656-0.747-1.15-0.999c-0.494-0.253-1.145-0.38-1.951-0.38
			c-1.148,0-2.006,0.082-2.57,0.243s-0.979,0.292-1.24,0.394l-0.273-1.728c0.344-0.163,0.873-0.313,1.588-0.455
			C264.975,80.195,265.838,80.125,266.846,80.125 M267.026,94.738c0.768,0,1.438-0.025,2.012-0.075s1.064-0.116,1.469-0.196v-5.52
			c-0.223-0.102-0.576-0.207-1.061-0.318c-0.482-0.111-1.148-0.166-1.996-0.166c-0.482,0-0.986,0.035-1.512,0.105
			c-0.523,0.07-1.008,0.223-1.451,0.455c-0.445,0.232-0.809,0.551-1.09,0.955s-0.424,0.94-0.424,1.606
			c0,0.587,0.096,1.082,0.287,1.486c0.191,0.403,0.465,0.728,0.818,0.97c0.352,0.243,0.775,0.421,1.27,0.532
			C265.842,94.684,266.401,94.738,267.026,94.738z"/>
		<path fill="#333333" d="M325.176,80.488c-0.443,0.526-0.943,1.111-1.496,1.754c-0.555,0.647-1.121,1.294-1.693,1.936
			c-0.574,0.646-1.141,1.283-1.695,1.91c-0.553,0.621-1.063,1.187-1.527,1.692c0.686,0.506,1.381,1.097,2.088,1.778
			c0.705,0.678,1.381,1.39,2.027,2.139c0.645,0.752,1.238,1.512,1.783,2.279c0.545,0.767,1.02,1.5,1.422,2.188h-2.207
			c-0.465-0.729-1.01-1.497-1.635-2.296c-0.625-0.798-1.27-1.557-1.936-2.279c-0.666-0.717-1.326-1.365-1.98-1.939
			c-0.656-0.581-1.236-1-1.74-1.264v7.778h-1.936v-7.778c-0.504,0.264-1.084,0.683-1.738,1.264
			c-0.656,0.574-1.316,1.223-1.982,1.939c-0.666,0.723-1.314,1.481-1.951,2.279c-0.635,0.799-1.174,1.567-1.617,2.296h-2.178
			c0.383-0.688,0.852-1.422,1.406-2.188c0.555-0.768,1.154-1.527,1.801-2.279c0.645-0.749,1.314-1.456,2.01-2.123
			c0.695-0.672,1.387-1.258,2.072-1.764c-0.463-0.506-0.973-1.072-1.527-1.693c-0.555-0.627-1.119-1.269-1.693-1.925
			c-0.576-0.651-1.145-1.298-1.711-1.936c-0.563-0.637-1.068-1.223-1.51-1.769h2.268c0.826,1.011,1.775,2.127,2.844,3.361
			c1.068,1.228,2.238,2.541,3.508,3.931v-7.292h1.936v7.292c1.271-1.39,2.439-2.703,3.51-3.931c1.068-1.234,2.016-2.351,2.844-3.361
			H325.176z"/>
		<path fill="#333333" d="M338.963,83.006c-0.611,0.728-1.316,1.642-2.119,2.748c-0.797,1.112-1.607,2.283-2.42,3.516
			c-0.811,1.24-1.588,2.464-2.328,3.68c-0.74,1.215-1.387,2.285-1.936,3.216h-1.846V80.488h1.936v12.553
			c0.484-0.869,1.084-1.875,1.801-3.017c0.715-1.144,1.477-2.295,2.283-3.457c0.807-1.163,1.617-2.278,2.436-3.351
			c0.814-1.07,1.576-1.98,2.283-2.729h1.846v15.677h-1.936V83.006z"/>
		<path fill="#333333" d="M348.815,94.738c1.412,0,2.52-0.236,3.328-0.717c0.807-0.475,1.209-1.193,1.209-2.148
			c0-0.691-0.15-1.238-0.453-1.648c-0.303-0.402-0.682-0.716-1.135-0.938c-0.455-0.228-0.938-0.373-1.453-0.445
			c-0.514-0.069-0.982-0.105-1.406-0.105h-2.178v-1.667h2.027c0.363,0,0.781-0.031,1.256-0.092c0.473-0.061,0.912-0.182,1.314-0.359
			c0.404-0.181,0.746-0.438,1.029-0.771c0.281-0.33,0.424-0.769,0.424-1.311c0-0.52-0.117-0.955-0.348-1.297
			c-0.232-0.339-0.541-0.613-0.924-0.815c-0.383-0.197-0.82-0.338-1.316-0.419c-0.492-0.08-0.992-0.121-1.496-0.121
			c-1.148,0-2.059,0.115-2.723,0.35c-0.666,0.232-1.119,0.409-1.361,0.529l-0.453-1.758c0.283-0.141,0.816-0.318,1.604-0.529
			c0.785-0.213,1.764-0.319,2.934-0.319c1.996,0,3.51,0.362,4.537,1.091c1.029,0.723,1.543,1.805,1.543,3.235
			c0,0.888-0.264,1.61-0.787,2.162c-0.523,0.556-1.139,0.944-1.844,1.167c0.986,0.283,1.773,0.758,2.357,1.43
			c0.586,0.667,0.877,1.548,0.877,2.639c0,1.562-0.555,2.725-1.662,3.496c-1.109,0.769-2.732,1.152-4.869,1.152
			c-1.434,0-2.582-0.121-3.449-0.362c-0.867-0.243-1.422-0.425-1.664-0.547l0.514-1.788c0.061,0.039,0.197,0.105,0.41,0.196
			c0.211,0.09,0.508,0.191,0.891,0.304c0.383,0.111,0.848,0.205,1.393,0.287S348.11,94.738,348.815,94.738"/>
		<polygon fill="#333333" points="371.129,96.165 369.162,96.165 369.162,88.855 360.664,88.855 360.664,96.165 358.698,96.165 
			358.698,80.488 360.664,80.488 360.664,87.189 369.162,87.189 369.162,80.488 371.129,80.488 		"/>
		<path fill="#333333" d="M386.063,83.006c-0.609,0.728-1.314,1.642-2.115,2.748c-0.797,1.112-1.609,2.283-2.42,3.516
			c-0.813,1.24-1.59,2.464-2.33,3.68c-0.742,1.215-1.387,2.285-1.936,3.216h-1.846V80.488h1.936v12.553
			c0.484-0.869,1.084-1.875,1.799-3.017c0.717-1.144,1.479-2.295,2.285-3.457c0.807-1.163,1.619-2.278,2.434-3.351
			c0.818-1.07,1.58-1.98,2.285-2.729H388v15.677h-1.938V83.006z"/>
		<path fill="#333333" d="M294.121,83.006c-0.609,0.728-1.316,1.642-2.117,2.748c-0.797,1.112-1.609,2.283-2.42,3.516
			c-0.813,1.24-1.59,2.464-2.33,3.68c-0.74,1.215-1.387,2.285-1.936,3.216h-1.846V80.488h1.936v12.553
			c0.486-0.869,1.086-1.875,1.801-3.017c0.715-1.144,1.477-2.295,2.283-3.457c0.807-1.163,1.619-2.278,2.436-3.351
			c0.816-1.07,1.578-1.98,2.283-2.729h1.846v15.677h-1.936V83.006z"/>
	</g>
</g>
</svg>
