<?xml version="1.0" encoding="utf-8"?>
<!-- Generator: Adobe Illustrator 16.2.0, SVG Export Plug-In . SVG Version: 6.00 Build 0)  -->
<!DOCTYPE svg PUBLIC "-//W3C//DTD SVG 1.1//EN" "http://www.w3.org/Graphics/SVG/1.1/DTD/svg11.dtd">
<svg version="1.1" id="Layer_1" xmlns="http://www.w3.org/2000/svg" xmlns:xlink="http://www.w3.org/1999/xlink" x="0px" y="0px"
	 width="388px" height="96px" viewBox="286.48 228.48 388 96" enable-background="new 286.48 228.48 388 96" xml:space="preserve">
<g>
	<path fill="#E1343B" d="M330.244,324.432c-24.537-2.219-43.765-22.839-43.765-47.951c0-25.114,19.228-45.734,43.765-47.953V324.432
		L330.244,324.432z"/>
	<path fill="#E1343B" d="M372.563,276.49c0-19.333-14.703-35.227-33.534-37.116v-10.895c24.702,1.963,43.765,22.763,43.765,48
		c0,25.242-19.064,46.039-43.765,48v-10.895c18.831-1.889,33.534-17.782,33.534-37.109V276.49z"/>
	<path fill="#E1343B" d="M353.24,276.49v-0.016c-0.007-8.632-6.097-15.84-14.211-17.57v-10.711
		c13.978,1.843,24.767,13.799,24.774,28.281v0.016c-0.008,14.481-10.797,26.438-24.774,28.28v-10.718
		C347.144,292.324,353.233,285.123,353.24,276.49"/>
	<path fill="#333333" d="M622.949,268.343c-3.488-4.736-11.104-4.736-14.592,0c-3.547,4.817-3.514,12.1,0,16.924
		c3.482,4.783,11.109,4.781,14.592,0C626.46,280.442,626.496,273.16,622.949,268.343 M623.652,295.487
		c-4.84,2.082-11.121,2.103-15.957,0c-15.5-6.733-15.342-30.831,0.078-37.365c4.828-2.048,10.967-2.028,15.801,0
		C638.894,264.545,639.121,288.839,623.652,295.487z"/>
	<path fill="#333333" d="M510.691,256.593c0.291,0.002,12.551,0.008,12.834,0.017c2.574,0.086,4.777,0.465,6.611,1.135
		c2.102,0.77,3.783,1.846,5.039,3.23c1.256,1.384,2.154,3.064,2.689,5.038c0.539,1.973,0.809,2.928,0.809,5.283v23.771
		c-1.436,0.308-3.604,0.681-6.498,1.115c-2.896,0.435-6.166,0.653-9.807,0.653c-2.41,0-4.615-0.231-6.615-0.692
		s-3.705-1.205-5.113-2.229c-6.217-4.521-6.145-14.879,0.5-19.195c1.537-0.999,3.32-1.719,5.346-2.154
		c2.023-0.435,4.141-0.653,6.346-0.653c1.025,0,2.102,0.064,3.23,0.192c1.127,0.128,2.332,0.346,3.613,0.654
		c0-2.562,0.066-3.892-1.73-5.977c-3.4-3.947-12.66-1.95-17.254-2.302V256.593L510.691,256.593z M523.138,289.453
		c2.871,0,5.053-0.152,6.537-0.461v-9.697c-0.512-0.154-1.256-0.309-2.229-0.463c-0.975-0.152-2.053-0.23-3.23-0.23
		c-1.025,0-2.064,0.078-3.115,0.23C512.982,280.021,513.005,289.453,523.138,289.453z"/>
	<path fill="#333333" d="M448.516,256.593c0.294,0.002,12.556,0.008,12.838,0.017c2.573,0.086,4.778,0.465,6.611,1.135
		c2.103,0.77,3.782,1.846,5.038,3.23c1.256,1.384,2.154,3.064,2.691,5.038c0.538,1.973,0.808,2.928,0.808,5.283v23.771
		c-1.436,0.308-3.603,0.681-6.498,1.115c-2.896,0.435-6.167,0.653-9.807,0.653c-2.411,0-4.615-0.231-6.615-0.692
		s-3.706-1.205-5.114-2.229c-6.216-4.521-6.144-14.879,0.5-19.195c1.537-0.999,3.32-1.719,5.347-2.154
		c2.023-0.435,4.139-0.653,6.345-0.653c1.023,0,2.103,0.064,3.229,0.192c1.128,0.128,2.334,0.346,3.616,0.654
		c0-2.562,0.065-3.892-1.73-5.977c-3.401-3.947-12.661-1.95-17.258-2.302V256.593L448.516,256.593z M460.966,289.453
		c2.871,0,5.051-0.152,6.538-0.461v-9.697c-0.514-0.154-1.257-0.309-2.229-0.463c-0.976-0.152-2.053-0.23-3.23-0.23
		c-1.026,0-2.065,0.078-3.115,0.23C450.808,280.021,450.831,289.453,460.966,289.453z"/>
	<polygon fill="#333333" points="674.48,297.02 664.712,297.02 664.712,280.078 648.81,280.078 648.81,297.02 639.042,297.02 
		639.042,256.557 648.81,256.557 648.81,272.34 664.712,272.34 664.712,256.557 674.48,256.557 	"/>
	<polygon fill="#333333" points="506.38,264.407 496.802,264.407 496.802,297.056 487.441,297.056 487.441,264.407 477.936,264.407 
		477.936,256.593 506.38,256.593 	"/>
	<path fill="#333333" d="M427.67,289.772V263.95h-10.447c-0.099,2.011-0.222,4.059-0.368,6.143c-0.147,2.085-0.417,4.146-0.81,6.181
		c-0.393,2.036-0.92,6.007-1.582,7.944c-0.661,1.938-1.532,3.789-2.612,5.555L427.67,289.772L427.67,289.772z M398.166,289.772
		h4.414c1.521-2.011,2.71-4.254,3.568-6.731c0.858-2.476,1.484-7.062,1.876-9.784c0.393-2.722,0.639-5.505,0.736-8.35
		c0.097-2.845,0.172-5.616,0.221-8.314h27.592v33.181h5.887v11.178h-7.947v-3.893h-28.475v3.893h-7.872V289.772z"/>
	<path fill="#333333" d="M591.263,268.842c-1.129-2.329-2.648-4.305-4.561-5.923c-1.914-1.618-4.133-2.869-6.66-3.753
		c-2.525-0.882-5.186-1.396-7.982-1.545v-9.854h-8.607c0,1.653,0,8.203,0,9.855c-3.236,0.246-6.143,0.871-8.719,1.877
		c-2.574,1.005-4.76,2.343-6.549,4.01c-1.791,1.669-3.176,3.631-4.156,5.887c-0.982,2.256-1.473,4.758-1.473,7.504
		c0,2.796,0.504,5.347,1.508,7.651c1.008,2.305,2.418,4.305,4.232,5.996s4.008,3.027,6.584,4.01c2.576,0.98,5.434,1.545,8.572,1.691
		v9.601h8.607v-9.601c2.846-0.146,5.529-0.662,8.057-1.545c2.525-0.883,4.746-2.121,6.66-3.716c1.91-1.594,3.42-3.567,4.523-5.922
		c1.105-2.354,1.656-5.077,1.656-8.167C592.957,273.857,592.392,271.171,591.263,268.842z M563.451,265.054v23.689
		c-3.531-0.246-6.389-1.324-8.572-3.238c-2.18-1.912-3.273-4.758-3.273-8.532c0-3.778,1.105-6.659,3.313-8.646
		C557.125,266.342,559.969,265.25,563.451,265.054L563.451,265.054h0.002C563.452,265.054,563.452,265.054,563.451,265.054z
		 M582.951,282.123c-0.639,1.471-1.496,2.697-2.576,3.678c-1.078,0.982-2.342,1.705-3.789,2.172
		c-1.447,0.464-2.955,0.722-4.525,0.771v-23.692c1.57,0.05,3.078,0.319,4.525,0.811c1.447,0.49,2.711,1.214,3.789,2.17
		c1.08,0.956,1.938,2.17,2.576,3.643c0.637,1.471,0.957,3.213,0.957,5.223C583.908,278.91,583.587,280.649,582.951,282.123z"/>
</g>
</svg>
