<?xml version="1.0" encoding="utf-8"?>
<!-- Generator: Adobe Illustrator 16.2.0, SVG Export Plug-In . SVG Version: 6.00 Build 0)  -->
<!DOCTYPE svg PUBLIC "-//W3C//DTD SVG 1.1//EN" "http://www.w3.org/Graphics/SVG/1.1/DTD/svg11.dtd">
<svg version="1.1" id="Layer_1" xmlns="http://www.w3.org/2000/svg" xmlns:xlink="http://www.w3.org/1999/xlink" x="0px" y="0px"
	 width="64px" height="46px" viewBox="0 0 64 46" enable-background="new 0 0 64 46" xml:space="preserve">
<g>
	<path fill="#333333" d="M59.428,18.4H4.571C2.048,18.4,0,20.462,0,23c0,2.538,2.048,4.6,4.571,4.6h54.857
		C61.952,27.6,64,25.538,64,23C64,20.462,61.952,18.4,59.428,18.4z"/>
	<path fill="#333333" d="M4.571,9.2h54.857C61.952,9.2,64,7.139,64,4.6S61.952,0,59.428,0H4.571C2.048,0,0,2.061,0,4.6
		S2.048,9.2,4.571,9.2z"/>
	<path fill="#333333" d="M59.428,36.799H4.571C2.048,36.799,0,38.862,0,41.401C0,43.938,2.048,46,4.571,46h54.857
		c2.523,0,4.572-2.063,4.572-4.6C64,38.862,61.952,36.799,59.428,36.799z"/>
</g>
</svg>
