<?xml version="1.0" encoding="utf-8"?>
<!-- Generator: Adobe Illustrator 16.2.0, SVG Export Plug-In . SVG Version: 6.00 Build 0)  -->
<!DOCTYPE svg PUBLIC "-//W3C//DTD SVG 1.1//EN" "http://www.w3.org/Graphics/SVG/1.1/DTD/svg11.dtd">
<svg version="1.1" id="Layer_1" xmlns="http://www.w3.org/2000/svg" xmlns:xlink="http://www.w3.org/1999/xlink" x="0px" y="0px"
	 width="72px" height="72px" viewBox="0 0 72 72" enable-background="new 0 0 72 72" xml:space="preserve">
<g>
	<path fill-rule="evenodd" clip-rule="evenodd" fill="#E2333B" d="M58.16,27.694h-5.537c-0.006-4.586-3.721-8.302-8.306-8.308
		v-5.539C51.958,13.856,58.151,20.051,58.16,27.694"/>
	<path fill-rule="evenodd" clip-rule="evenodd" fill="#E2333B" d="M69.231,27.694h-5.534c-0.012-10.7-8.684-19.374-19.38-19.383
		V2.77C58.072,2.787,69.214,13.935,69.231,27.694"/>
	<path fill-rule="evenodd" clip-rule="evenodd" fill="#E2333B" d="M63.697,72h-0.472C8.829,68.87,1.109,22.958,0.025,8.947
		c-0.352-4.575,3.071-8.569,7.644-8.918C7.889,0.009,8.108,0,8.331,0h14.587c2.268,0,4.31,1.383,5.151,3.49l4.207,10.357
		c0.829,2.061,0.346,4.414-1.218,5.981l-5.898,5.958c1.881,10.726,10.263,19.134,20.986,21.042l6.006-5.955
		c1.594-1.548,3.961-1.996,6.009-1.135l10.436,4.18c2.077,0.87,3.422,2.904,3.404,5.154v14.621C72,68.278,68.279,72,63.697,72
		 M8.331,5.542C6.799,5.536,5.554,6.77,5.551,8.3c0,0.076,0.003,0.158,0.012,0.234c1.274,16.391,9.439,55.16,57.965,57.927
		c1.526,0.094,2.842-1.072,2.933-2.597c0.006-0.059,0.006-0.114,0.006-0.17V49.073l-10.438-4.185l-7.945,7.898l-1.327-0.17
		c-24.086-3.019-27.353-27.112-27.353-27.361l-0.167-1.325l7.86-7.954L22.944,5.542H8.331z"/>
</g>
</svg>
