<?xml version="1.0" encoding="utf-8"?>
<!-- Generator: Adobe Illustrator 16.2.0, SVG Export Plug-In . SVG Version: 6.00 Build 0)  -->
<!DOCTYPE svg PUBLIC "-//W3C//DTD SVG 1.1//EN" "http://www.w3.org/Graphics/SVG/1.1/DTD/svg11.dtd">
<svg version="1.1" id="Layer_1" xmlns="http://www.w3.org/2000/svg" xmlns:xlink="http://www.w3.org/1999/xlink" x="0px" y="0px"
	 width="30px" height="30px" viewBox="0 0 30 30" enable-background="new 0 0 30 30" xml:space="preserve">
<g>
	<path fill-rule="evenodd" clip-rule="evenodd" fill="#E1343B" d="M24.233,11.54h-2.307c-0.002-1.911-1.551-3.459-3.461-3.462V5.77
		C21.649,5.774,24.23,8.355,24.233,11.54"/>
	<path fill-rule="evenodd" clip-rule="evenodd" fill="#E1343B" d="M28.846,11.54h-2.306c-0.005-4.458-3.618-8.072-8.075-8.076v-2.31
		C24.197,1.162,28.839,5.806,28.846,11.54"/>
	<path fill-rule="evenodd" clip-rule="evenodd" fill="#E1343B" d="M26.541,30h-0.196C3.679,28.696,0.462,9.566,0.011,3.728
		c-0.146-1.906,1.279-3.57,3.185-3.716C3.287,0.004,3.378,0,3.471,0h6.078c0.945,0,1.796,0.576,2.146,1.454l1.753,4.315
		c0.346,0.858,0.144,1.839-0.508,2.492l-2.457,2.482c0.784,4.47,4.276,7.973,8.744,8.768l2.503-2.481
		c0.664-0.645,1.65-0.831,2.503-0.473l4.349,1.741c0.866,0.363,1.426,1.211,1.419,2.148v6.092C30,28.45,28.45,30,26.541,30
		 M3.471,2.309C2.833,2.307,2.314,2.821,2.313,3.458c0,0.031,0.001,0.065,0.005,0.098c0.531,6.829,3.933,22.983,24.151,24.137
		c0.637,0.039,1.185-0.447,1.223-1.082c0.002-0.024,0.002-0.048,0.002-0.071v-6.092l-4.35-1.744l-3.311,3.291l-0.553-0.07
		C9.446,20.667,8.084,10.627,8.084,10.524L8.015,9.972l3.275-3.314L9.561,2.309H3.471z"/>
</g>
</svg>
