<?xml version="1.0" encoding="utf-8"?>
<!-- Generator: Adobe Illustrator 16.2.0, SVG Export Plug-In . SVG Version: 6.00 Build 0)  -->
<!DOCTYPE svg PUBLIC "-//W3C//DTD SVG 1.1//EN" "http://www.w3.org/Graphics/SVG/1.1/DTD/svg11.dtd">
<svg version="1.1" id="Layer_1" xmlns="http://www.w3.org/2000/svg" xmlns:xlink="http://www.w3.org/1999/xlink" x="0px" y="0px"
	 width="60px" height="60px" viewBox="0 0 60 60" enable-background="new 0 0 60 60" xml:space="preserve">
<g>
	<path fill-rule="evenodd" clip-rule="evenodd" fill="#E1343B" d="M50.371,0H9.626C4.312,0.007,0.005,4.312,0,9.626v26.465
		c0.005,5.314,4.312,9.623,9.626,9.629h23.113l11.823,13.513C44.985,59.719,45.601,60,46.245,60c1.237,0,2.241-1.006,2.241-2.241
		V45.721h1.885c5.314-0.006,9.621-4.314,9.629-9.629V9.626C59.992,4.312,55.686,0.007,50.371,0z M55.516,36.092
		c-0.006,2.842-2.311,5.148-5.152,5.15h-4.118c-1.235,0-2.236,1.004-2.236,2.239v8.32l-8.567-9.795
		c-0.43-0.485-1.042-0.765-1.689-0.765H9.626c-2.844-0.002-5.146-2.309-5.149-5.15V9.626C4.48,6.785,6.782,4.48,9.626,4.478h40.745
		c2.837,0.007,5.139,2.31,5.145,5.149V36.092z"/>
	<path fill-rule="evenodd" clip-rule="evenodd" fill="#E1343B" d="M23.909,29.561c-0.015-0.068-0.032-0.139-0.059-0.212
		c-0.02-0.068-0.044-0.137-0.071-0.205c-0.029-0.066-0.061-0.132-0.095-0.198c-0.037-0.063-0.071-0.127-0.112-0.188
		c-0.042-0.059-0.081-0.122-0.129-0.176c-0.046-0.059-0.098-0.112-0.149-0.166c-0.049-0.051-0.107-0.103-0.164-0.146
		c-0.056-0.049-0.115-0.093-0.176-0.129c-0.061-0.044-0.125-0.078-0.188-0.112c-0.066-0.037-0.129-0.066-0.198-0.098
		c-0.068-0.027-0.144-0.054-0.208-0.071c-0.061-0.022-0.144-0.042-0.212-0.059c-0.071-0.012-0.144-0.022-0.217-0.032
		c-0.667-0.059-1.328,0.176-1.802,0.647c-0.054,0.054-0.105,0.105-0.151,0.164c-0.046,0.056-0.09,0.117-0.129,0.176
		c-0.039,0.061-0.078,0.125-0.112,0.188c-0.034,0.066-0.066,0.132-0.093,0.198c-0.029,0.068-0.054,0.146-0.076,0.208
		c-0.022,0.063-0.042,0.144-0.054,0.212s-0.024,0.146-0.032,0.217c-0.01,0.073-0.015,0.146-0.015,0.222
		c0,0.073,0.005,0.146,0.015,0.22c0.007,0.068,0.02,0.151,0.032,0.217c0.015,0.063,0.032,0.144,0.054,0.215
		c0.022,0.066,0.046,0.137,0.076,0.203c0.027,0.068,0.059,0.134,0.093,0.2c0.034,0.061,0.073,0.127,0.112,0.186
		c0.039,0.061,0.083,0.122,0.129,0.178c0.051,0.059,0.098,0.11,0.151,0.164c0.422,0.418,0.989,0.654,1.584,0.654
		c0.073,0,0.149,0,0.217-0.008c0.068-0.007,0.146-0.017,0.217-0.029c0.073-0.014,0.142-0.033,0.212-0.056s0.139-0.046,0.208-0.075
		c0.068-0.027,0.132-0.059,0.198-0.094c0.063-0.036,0.127-0.07,0.188-0.114c0.059-0.039,0.12-0.078,0.176-0.127
		s0.112-0.098,0.164-0.149c0.054-0.053,0.103-0.107,0.149-0.166c0.046-0.056,0.088-0.114,0.129-0.175
		c0.039-0.061,0.076-0.125,0.112-0.188c0.034-0.063,0.066-0.132,0.095-0.198c0.027-0.068,0.054-0.142,0.071-0.205
		c0.024-0.066,0.044-0.149,0.059-0.215c0.012-0.066,0.02-0.144,0.032-0.215c0.01-0.073,0.01-0.151,0.01-0.222
		s-0.005-0.151-0.01-0.22C23.931,29.712,23.921,29.634,23.909,29.561z"/>
	<path fill-rule="evenodd" clip-rule="evenodd" fill="#E1343B" d="M40.425,29.346c-0.02-0.068-0.044-0.139-0.075-0.208
		c-0.025-0.063-0.059-0.134-0.094-0.198c-0.033-0.063-0.07-0.125-0.111-0.186c-0.039-0.063-0.084-0.122-0.13-0.178
		c-0.049-0.056-0.095-0.11-0.149-0.164c-0.053-0.054-0.104-0.105-0.163-0.149c-0.056-0.046-0.117-0.088-0.179-0.129
		c-0.059-0.042-0.121-0.078-0.188-0.112c-0.063-0.034-0.129-0.066-0.195-0.093c-0.068-0.032-0.145-0.056-0.205-0.076
		c-0.066-0.022-0.148-0.042-0.215-0.056c-0.068-0.012-0.146-0.022-0.215-0.032c-0.148-0.012-0.295-0.012-0.444,0
		c-0.065,0.01-0.151,0.02-0.218,0.032c-0.061,0.017-0.141,0.034-0.212,0.056c-0.068,0.022-0.14,0.044-0.208,0.076
		c-0.068,0.027-0.131,0.059-0.195,0.093c-0.065,0.034-0.129,0.071-0.189,0.112c-0.059,0.042-0.12,0.081-0.176,0.129
		c-0.057,0.046-0.11,0.095-0.164,0.149s-0.105,0.107-0.148,0.164c-0.049,0.056-0.091,0.115-0.133,0.178
		c-0.039,0.061-0.075,0.122-0.111,0.186c-0.032,0.063-0.064,0.134-0.091,0.198c-0.032,0.068-0.056,0.144-0.075,0.208
		c-0.022,0.066-0.042,0.146-0.057,0.212c-0.012,0.068-0.02,0.146-0.031,0.215c-0.01,0.073-0.01,0.151-0.01,0.225
		c0,0.071,0.002,0.154,0.01,0.222c0.01,0.066,0.02,0.151,0.031,0.217c0.015,0.061,0.034,0.142,0.057,0.212
		c0.021,0.068,0.043,0.137,0.075,0.205c0.026,0.066,0.059,0.132,0.091,0.195c0.036,0.066,0.072,0.129,0.111,0.188
		c0.042,0.061,0.084,0.125,0.133,0.178c0.046,0.059,0.095,0.112,0.148,0.164c0.054,0.053,0.107,0.104,0.164,0.148
		c0.056,0.049,0.117,0.09,0.176,0.129c0.061,0.045,0.124,0.078,0.189,0.113c0.064,0.033,0.127,0.065,0.195,0.092
		c0.068,0.032,0.145,0.057,0.208,0.076c0.063,0.021,0.146,0.041,0.212,0.057c0.071,0.012,0.149,0.021,0.218,0.031
		c0.071,0.01,0.149,0.01,0.22,0.01c0.076,0,0.156,0.002,0.225-0.002c0.066-0.01,0.142-0.02,0.215-0.032
		c0.068-0.017,0.145-0.034,0.215-0.056c0.066-0.022,0.137-0.045,0.205-0.078c0.066-0.025,0.132-0.057,0.195-0.091
		c0.066-0.036,0.129-0.071,0.188-0.112c0.062-0.041,0.123-0.08,0.179-0.129c0.059-0.047,0.11-0.096,0.163-0.149
		c0.055-0.054,0.105-0.107,0.149-0.163c0.046-0.059,0.091-0.118,0.13-0.181c0.041-0.059,0.078-0.122,0.111-0.186
		c0.035-0.063,0.068-0.132,0.094-0.195c0.031-0.068,0.059-0.144,0.075-0.208c0.022-0.066,0.042-0.149,0.054-0.215
		c0.015-0.066,0.027-0.144,0.034-0.215c0.015-0.149,0.015-0.3,0-0.452c-0.007-0.063-0.017-0.149-0.034-0.215
		C40.464,29.497,40.449,29.414,40.425,29.346z"/>
	<path fill-rule="evenodd" clip-rule="evenodd" fill="#E1343B" d="M32.202,29.558c-0.013-0.061-0.032-0.142-0.056-0.212
		c-0.02-0.068-0.045-0.139-0.071-0.208c-0.029-0.063-0.062-0.132-0.093-0.195c-0.034-0.066-0.07-0.127-0.112-0.188
		c-0.044-0.061-0.088-0.122-0.132-0.178c-0.047-0.059-0.096-0.11-0.151-0.164c-0.049-0.054-0.104-0.105-0.161-0.149
		c-0.057-0.046-0.117-0.088-0.176-0.129c-0.063-0.042-0.125-0.078-0.188-0.112c-0.066-0.034-0.132-0.066-0.201-0.093
		c-0.068-0.032-0.139-0.056-0.208-0.076c-0.063-0.022-0.144-0.042-0.212-0.056c-0.068-0.012-0.142-0.022-0.215-0.032
		c-0.149-0.012-0.3-0.012-0.447,0c-0.071,0.01-0.149,0.02-0.22,0.032c-0.071,0.017-0.144,0.034-0.21,0.056
		c-0.073,0.022-0.142,0.044-0.208,0.076c-0.068,0.027-0.137,0.059-0.198,0.093c-0.129,0.068-0.254,0.149-0.369,0.242
		c-0.054,0.046-0.11,0.098-0.159,0.149c-0.056,0.054-0.103,0.105-0.151,0.164c-0.046,0.056-0.093,0.117-0.132,0.178
		s-0.078,0.122-0.112,0.188c-0.034,0.063-0.068,0.132-0.093,0.195c-0.027,0.068-0.054,0.139-0.073,0.208
		c-0.022,0.071-0.039,0.142-0.054,0.212c-0.012,0.073-0.024,0.144-0.034,0.215c-0.007,0.076-0.012,0.151-0.012,0.225
		c0,0.146,0.017,0.293,0.046,0.439c0.015,0.068,0.032,0.139,0.054,0.21c0.02,0.071,0.046,0.139,0.073,0.208
		c0.027,0.066,0.059,0.132,0.093,0.195c0.034,0.066,0.073,0.129,0.112,0.188c0.039,0.061,0.085,0.125,0.132,0.178
		c0.049,0.059,0.095,0.112,0.151,0.164c0.049,0.053,0.105,0.104,0.159,0.148c0.115,0.093,0.239,0.174,0.369,0.242
		c0.061,0.033,0.129,0.065,0.198,0.092c0.066,0.032,0.134,0.057,0.208,0.076c0.066,0.021,0.142,0.041,0.21,0.057
		c0.068,0.012,0.144,0.023,0.22,0.031c0.071,0.008,0.144,0.01,0.217,0.01c0.076,0.002,0.151-0.002,0.229-0.01
		c0.068-0.008,0.144-0.018,0.215-0.031c0.073-0.018,0.144-0.032,0.212-0.057c0.073-0.02,0.139-0.044,0.208-0.076
		c0.068-0.026,0.134-0.059,0.201-0.092c0.063-0.035,0.127-0.071,0.188-0.113c0.059-0.039,0.119-0.08,0.176-0.129
		c0.057-0.047,0.112-0.098,0.161-0.148c0.056-0.052,0.104-0.105,0.151-0.164c0.044-0.054,0.09-0.115,0.132-0.178
		c0.042-0.059,0.078-0.125,0.112-0.188c0.031-0.063,0.063-0.129,0.093-0.195c0.026-0.068,0.052-0.137,0.071-0.208
		c0.023-0.061,0.043-0.142,0.056-0.21c0.029-0.146,0.042-0.293,0.042-0.439c0-0.073-0.003-0.149-0.01-0.225
		C32.227,29.702,32.217,29.631,32.202,29.558z"/>
</g>
</svg>
