<?xml version="1.0" encoding="utf-8"?>
<!-- Generator: Adobe Illustrator 16.2.0, SVG Export Plug-In . SVG Version: 6.00 Build 0)  -->
<!DOCTYPE svg PUBLIC "-//W3C//DTD SVG 1.1//EN" "http://www.w3.org/Graphics/SVG/1.1/DTD/svg11.dtd">
<svg version="1.1" id="Layer_1" xmlns="http://www.w3.org/2000/svg" xmlns:xlink="http://www.w3.org/1999/xlink" x="0px" y="0px"
	 width="72px" height="72px" viewBox="0 0 72 72" enable-background="new 0 0 72 72" xml:space="preserve">
<g>
	<path fill-rule="evenodd" clip-rule="evenodd" fill="#E1343B" d="M61.497,9H48.001V0H23.999v9h-13.5v16.498H0v21.003h10.499v16.5
		h13.5V72h24.002v-8.999h13.496v-16.5H72V25.498H61.497V9z M27.002,2.997h17.999V18H27.002V2.997z M3.003,28.5h17.999v15.001H3.003
		V28.5z M45.001,69.001H27.002V54h17.999V69.001z M58.5,60.001H48.001V51H23.999v9.001h-10.5v-13.5h10.5V25.498h-10.5v-13.5h10.5v9
		h24.002v-9H58.5v13.5H48.001v21.003H58.5V60.001z M68.997,43.501h-18V28.5h18V43.501z"/>
	<path fill="#E1343B" d="M61.497,9H48.001V0H23.999v9h-13.5v16.498H0v21.003h10.499v16.5h13.5V72h24.002v-8.999h13.496v-16.5H72
		V25.498H61.497V9z M27.002,2.997h17.999V18H27.002V2.997z M3.003,28.5h17.999v15.001H3.003V28.5z M45.001,69.001H27.002V54h17.999
		V69.001z M58.5,60.001H48.001V51H23.999v9.001h-10.5v-13.5h10.5V25.498h-10.5v-13.5h10.5v9h24.002v-9H58.5v13.5H48.001v21.003H58.5
		V60.001z M68.997,43.501h-18V28.5h18V43.501z"/>
</g>
</svg>
