<?xml version="1.0" encoding="utf-8"?>
<!-- Generator: Adobe Illustrator 16.2.0, SVG Export Plug-In . SVG Version: 6.00 Build 0)  -->
<!DOCTYPE svg PUBLIC "-//W3C//DTD SVG 1.1//EN" "http://www.w3.org/Graphics/SVG/1.1/DTD/svg11.dtd">
<svg version="1.1" id="Layer_1" xmlns="http://www.w3.org/2000/svg" xmlns:xlink="http://www.w3.org/1999/xlink" x="0px" y="0px"
	 width="54px" height="72px" viewBox="0 0 54 72" enable-background="new 0 0 54 72" xml:space="preserve">
<g>
	<path fill-rule="evenodd" clip-rule="evenodd" fill="#E2333B" d="M51.195,30.025H46.64V19.343C46.64,8.676,37.844,0,27.009,0
		S7.366,8.685,7.366,19.352c0,1.541,1.271,2.786,2.835,2.786c1.56,0,2.829-1.245,2.829-2.786c0-7.603,6.265-13.788,13.982-13.788
		c7.718,0,13.982,6.18,13.982,13.779v10.683H2.853C1.292,30.025,0,31.241,0,32.779v32.271C0,68.886,3.198,72,7.095,72h39.86
		c3.9,0,7.045-3.114,7.045-6.949V32.779C54,31.241,52.762,30.025,51.195,30.025 M48.354,65.051c0,0.768-0.619,1.392-1.399,1.392
		H7.095c-0.78,0-1.45-0.624-1.45-1.392V35.58h42.709V65.051z"/>
	<path fill-rule="evenodd" clip-rule="evenodd" fill="#E2333B" d="M27,59.347c1.561,0,2.822-1.245,2.822-2.783V46.552
		c0-1.538-1.262-2.783-2.822-2.783s-2.825,1.245-2.825,2.783v10.012C24.175,58.102,25.439,59.347,27,59.347"/>
</g>
</svg>
