<?xml version="1.0" encoding="utf-8"?>
<!-- Generator: Adobe Illustrator 16.2.0, SVG Export Plug-In . SVG Version: 6.00 Build 0)  -->
<!DOCTYPE svg PUBLIC "-//W3C//DTD SVG 1.1//EN" "http://www.w3.org/Graphics/SVG/1.1/DTD/svg11.dtd">
<svg version="1.1" id="Layer_1" xmlns="http://www.w3.org/2000/svg" xmlns:xlink="http://www.w3.org/1999/xlink" x="0px" y="0px"
	 width="72px" height="72px" viewBox="0 0 72 72" enable-background="new 0 0 72 72" xml:space="preserve">
<g>
	<path fill-rule="evenodd" clip-rule="evenodd" fill="#E2333B" d="M68.361,24.07L41.455,2.134
		c-3.548-2.892-8.581-2.838-12.073,0.127L3.489,24.27C1.283,26.146,0,28.938,0,31.888V62.12C0,67.573,4.301,72,9.601,72h52.802
		c5.3,0,9.598-4.427,9.598-9.88V31.815C72,28.799,70.661,25.946,68.361,24.07z M67.201,62.12c0,2.727-2.147,4.94-4.799,4.94H9.601
		c-2.651,0-4.799-2.214-4.799-4.94V31.888c0-1.478,0.642-2.871,1.746-3.812L32.44,6.07c1.746-1.481,4.26-1.508,6.035-0.061
		l26.906,21.934c1.151,0.941,1.819,2.371,1.819,3.873V62.12z"/>
	<path fill-rule="evenodd" clip-rule="evenodd" fill="#E2333B" d="M49.26,35.308l-4.638-2.938
		c-5.115-3.233-11.514-3.415-16.793-0.471l-4.969,2.769c-1.166,0.646-1.6,2.147-0.97,3.348c0.633,1.2,2.086,1.646,3.255,0.995
		l4.972-2.769c3.765-2.099,8.338-1.973,11.991,0.338l4.638,2.938c1.131,0.712,2.607,0.35,3.302-0.814S50.388,36.02,49.26,35.308z"/>
	<path fill-rule="evenodd" clip-rule="evenodd" fill="#E2333B" d="M44.818,42.993c-4.772-5.03-12.554-5.284-17.622-0.579
		c-0.984,0.917-1.063,2.485-0.176,3.492c0.888,1.014,2.402,1.098,3.39,0.181c3.158-2.938,8.001-2.774,10.975,0.356l0.1,0.103
		c0.926,0.978,2.443,1.001,3.393,0.042c0.952-0.953,0.97-2.516,0.041-3.492L44.818,42.993z"/>
	<path fill-rule="evenodd" clip-rule="evenodd" fill="#E2333B" d="M36.003,48.53c-1.986,0-3.601,1.659-3.601,3.704
		c0,2.044,1.614,3.709,3.601,3.709c1.989,0,3.598-1.665,3.598-3.709C39.601,50.189,37.992,48.53,36.003,48.53z"/>
</g>
</svg>
