<?xml version="1.0" encoding="utf-8"?>
<!-- Generator: Adobe Illustrator 16.2.0, SVG Export Plug-In . SVG Version: 6.00 Build 0)  -->
<!DOCTYPE svg PUBLIC "-//W3C//DTD SVG 1.1//EN" "http://www.w3.org/Graphics/SVG/1.1/DTD/svg11.dtd">
<svg version="1.1" id="Layer_1" xmlns="http://www.w3.org/2000/svg" xmlns:xlink="http://www.w3.org/1999/xlink" x="0px" y="0px"
	 width="32px" height="32px" viewBox="0 0 32 32" enable-background="new 0 0 32 32" xml:space="preserve">
<g>
	<path id="XMLID_328_" fill="#E1343B" d="M31.879,12.022c-0.268-0.805-0.947-1.381-1.77-1.507l-8.354-1.251l-3.76-7.982
		C17.623,0.492,16.859,0,16,0c-0.858,0-1.623,0.492-1.996,1.282l-3.705,7.954l-8.408,1.28c-0.823,0.125-1.5,0.702-1.77,1.507
		c-0.275,0.826-0.072,1.722,0.531,2.338l6.081,6.224l-1.436,8.773c-0.143,0.875,0.211,1.734,0.926,2.237
		c0.688,0.489,1.573,0.536,2.309,0.13l7.416-4.142l7.521,4.142c0.738,0.406,1.621,0.357,2.309-0.13
		c0.715-0.503,1.07-1.362,0.926-2.237l-1.438-8.784l6.082-6.213C31.951,13.745,32.154,12.849,31.879,12.022z"/>
</g>
</svg>
