<?xml version="1.0" encoding="utf-8"?>
<!-- Generator: Adobe Illustrator 16.2.0, SVG Export Plug-In . SVG Version: 6.00 Build 0)  -->
<!DOCTYPE svg PUBLIC "-//W3C//DTD SVG 1.1//EN" "http://www.w3.org/Graphics/SVG/1.1/DTD/svg11.dtd">
<svg version="1.1" id="Layer_1" xmlns="http://www.w3.org/2000/svg" xmlns:xlink="http://www.w3.org/1999/xlink" x="0px" y="0px"
	 width="30px" height="30px" viewBox="0 0 30 30" enable-background="new 0 0 30 30" xml:space="preserve">
<g>
	<g>
		<path fill="#E1343B" d="M15,30C6.729,30,0,23.271,0,15C0,6.729,6.729,0,15,0c8.27,0,15,6.729,15,15C30,23.271,23.27,30,15,30z
			 M15,1.579C7.6,1.579,1.579,7.6,1.579,15S7.6,28.421,15,28.421S28.42,22.4,28.42,15S22.401,1.579,15,1.579z"/>
	</g>
	<g>
		<path fill="#E1343B" d="M15,22.895c-4.354,0-7.895-3.542-7.895-7.895S10.647,7.105,15,7.105c4.352,0,7.895,3.542,7.895,7.895
			S19.352,22.895,15,22.895z M15,8.685c-3.482,0-6.316,2.833-6.316,6.315s2.834,6.315,6.316,6.315s6.314-2.833,6.314-6.315
			S18.483,8.685,15,8.685z"/>
	</g>
	<g>
		<path fill="#E1343B" d="M20.329,10.461c-0.201,0-0.404-0.077-0.559-0.231c-0.309-0.309-0.309-0.809,0-1.116l4.441-4.441
			c0.309-0.309,0.809-0.309,1.117,0s0.309,0.809,0,1.116l-4.441,4.441C20.733,10.384,20.532,10.461,20.329,10.461z"/>
	</g>
	<g>
		<path fill="#E1343B" d="M24.77,25.56c-0.203,0-0.404-0.077-0.559-0.231l-4.441-4.441c-0.309-0.308-0.309-0.808,0-1.116
			c0.309-0.308,0.809-0.308,1.117,0l4.441,4.441c0.309,0.308,0.309,0.808,0,1.116C25.174,25.482,24.971,25.56,24.77,25.56z"/>
	</g>
	<g>
		<path fill="#E1343B" d="M5.231,25.56c-0.203,0-0.404-0.077-0.559-0.231c-0.309-0.309-0.309-0.809,0-1.116l4.441-4.441
			c0.307-0.308,0.807-0.308,1.115,0c0.309,0.309,0.309,0.809,0,1.116l-4.441,4.441C5.633,25.482,5.432,25.56,5.231,25.56z"/>
	</g>
	<g>
		<path fill="#E1343B" d="M9.67,10.461c-0.201,0-0.404-0.077-0.557-0.231L4.672,5.788c-0.309-0.308-0.309-0.808,0-1.116
			s0.809-0.309,1.115,0l4.441,4.441c0.309,0.308,0.309,0.808,0,1.116C10.075,10.384,9.874,10.461,9.67,10.461z"/>
	</g>
</g>
</svg>
