<?xml version="1.0" encoding="utf-8"?>
<!-- Generator: Adobe Illustrator 16.2.0, SVG Export Plug-In . SVG Version: 6.00 Build 0)  -->
<!DOCTYPE svg PUBLIC "-//W3C//DTD SVG 1.1//EN" "http://www.w3.org/Graphics/SVG/1.1/DTD/svg11.dtd">
<svg version="1.1" id="Layer_1" xmlns="http://www.w3.org/2000/svg" xmlns:xlink="http://www.w3.org/1999/xlink" x="0px" y="0px"
	 width="72px" height="52px" viewBox="0 0 72 52" enable-background="new 0 0 72 52" xml:space="preserve">
<g>
	<path fill-rule="evenodd" clip-rule="evenodd" fill="#E1343B" d="M70.436,45.882H1.566C0.698,45.882,0,45.199,0,44.354V1.528
		C0,0.685,0.698,0,1.566,0h68.87C71.3,0,72,0.685,72,1.528v42.825C72,45.199,71.3,45.882,70.436,45.882 M68.87,3.058H3.131v39.765
		H68.87V3.058z M31.304,13.765c0.335,0,0.625,0.124,0.881,0.298l12.163,7.454c0.607,0.208,1.044,0.76,1.044,1.425
		c0,0.496-0.259,0.919-0.634,1.198l-12.482,7.617c-0.269,0.214-0.599,0.359-0.972,0.359c-0.866,0-1.564-0.682-1.564-1.526V15.293
		C29.74,14.449,30.438,13.765,31.304,13.765z M21.913,48.941h28.174c0.864,0,1.564,0.685,1.564,1.53c0,0.844-0.7,1.528-1.564,1.528
		H21.913c-0.864,0-1.564-0.685-1.564-1.528C20.349,49.626,21.048,48.941,21.913,48.941z"/>
</g>
</svg>
